Coordinates
version=1
nRows=17
nColumns=33
inDegrees=yes

Units are S.I. units (second, meters, Newtons, ...)
Angles are in degrees.

endheader
time	ground_thorax_rot_x	ground_thorax_rot_y	ground_thorax_rot_z	ground_thorax_tx	ground_thorax_ty	ground_thorax_tz	clav_prot_r	clav_elev_r	scapula_abduction_r	scapula_elevation_r	scapula_upward_rot_r	scapula_winging_r	shoulder_elv_r	plane_of_elev_r	axial_rot_r	elbow_flexion_r	pro_sup_r	wrist_flex_r	wrist_dev_r	clav_prot_l	clav_elev_l	scapula_abduction_l	scapula_elevation_l	scapula_upward_rot_l	scapula_winging_l	shoulder_elv_l	plane_of_elev_l	axial_rot_l	elbow_flexion_l	pro_sup_l	wrist_flex_l	wrist_dev_l	
7.9600	29.563378	28.128505	34.031767	-83.640686	768.714995	8.248901	14.818080	45.000000	45.000000	41.201337	45.000000	-3272.000445	-1241.110519	-90.000000	-86.336405	2152.837115	-98.880958	17.604053	11.112873	11.381977	-45.000000	-41.364892	45.000000	-45.000000	2249.809357	-2091.144404	19.236064	-57.777054	1447.436705	28.821278	8.199052	-18.642728	
7.9700	29.433387	28.125674	34.196712	-81.792760	768.562269	8.424651	14.777482	45.000000	45.000000	40.985927	45.000000	-3271.931293	-1241.009529	-90.000000	-86.423120	2152.832261	-98.727100	17.583749	10.981958	11.445303	-45.000000	-41.426702	45.000000	-45.000000	2249.699412	-2091.203275	19.248224	-57.677457	1447.371028	29.096997	8.143875	-18.581228	
7.9800	29.306854	28.127041	34.366183	-80.009755	768.431408	8.600826	14.729070	45.000000	45.000000	40.779478	45.000000	-3271.860872	-1240.894236	-90.000000	-86.524274	2152.845189	-98.593112	17.552317	10.846749	11.516115	-45.000000	-41.479585	45.000000	-45.000000	2249.578862	-2091.254899	19.243118	-57.580624	1447.308584	29.356729	8.097391	-18.512742	
7.9900	29.181066	28.124725	34.520863	-78.367177	768.353185	8.778960	14.708095	45.000000	45.000000	40.587441	45.000000	-3271.813108	-1240.828142	-90.000000	-86.576508	2152.823107	-98.468132	17.549289	10.747298	11.562484	-45.000000	-41.535926	45.000000	-45.000000	2249.484097	-2091.316084	19.274061	-57.337469	1447.234724	29.562137	8.072070	-18.467358	
8.0000	29.060368	28.127307	34.663594	-76.872208	768.324622	8.958380	14.699875	45.000000	45.000000	40.418781	45.000000	-3271.781699	-1240.778108	-90.000000	-86.613001	2152.800002	-98.376233	17.560711	10.674588	11.595113	-45.000000	-41.593202	45.000000	-45.000000	2249.396694	-2091.384887	19.319116	-57.018129	1447.149110	29.717818	8.066976	-18.434180	
8.0100	28.946752	28.134848	34.795734	-75.541321	768.346605	9.138576	14.701465	45.000000	45.000000	40.268936	45.000000	-3271.758559	-1240.734284	-90.000000	-86.643620	2152.781182	-98.334158	17.576811	10.625921	11.619761	-45.000000	-41.650359	45.000000	-45.000000	2249.322323	-2091.460339	19.375331	-56.638597	1447.065246	29.817933	8.078037	-18.412370	
8.0200	28.838242	28.150988	34.920225	-74.370932	768.411295	9.318424	14.706939	45.000000	45.000000	40.144532	45.000000	-3271.745239	-1240.682703	-90.000000	-86.682292	2152.783340	-98.357054	17.598264	10.601186	11.638074	-45.000000	-41.709755	45.000000	-45.000000	2249.253593	-2091.539049	19.431719	-56.246368	1446.983096	29.868836	8.102897	-18.400109	
8.0300	28.739004	28.174034	35.037215	-73.348742	768.507922	9.496290	14.710201	45.000000	45.000000	40.033924	45.000000	-3271.724574	-1240.612768	-90.000000	-86.739553	2152.814090	-98.452356	17.608204	10.590802	11.658097	-45.000000	-41.764270	45.000000	-45.000000	2249.191520	-2091.618384	19.484508	-55.881745	1446.914701	29.878633	8.131770	-18.391438	
8.0400	28.645229	28.206193	35.149060	-72.461755	768.627536	9.670298	14.712867	45.000000	45.000000	39.945796	45.000000	-3271.709827	-1240.529491	-90.000000	-86.810307	2152.870401	-98.615855	17.622605	10.599327	11.671130	-45.000000	-41.813164	45.000000	-45.000000	2249.129898	-2091.694088	19.528175	-55.563838	1446.859518	29.857755	8.164331	-18.390980	
8.0500	28.564618	28.241394	35.251588	-71.698087	768.763054	9.838094	14.714034	45.000000	45.000000	39.866552	45.000000	-3271.684634	-1240.438817	-90.000000	-86.888509	2152.943714	-98.834410	17.628840	10.618521	11.681535	-45.000000	-41.851897	45.000000	-45.000000	2249.074048	-2091.770694	19.567428	-55.301588	1446.823092	29.816685	8.192140	-18.394095	
8.0600	28.481987	28.281994	35.359296	-71.046612	768.909202	9.997176	14.714736	45.000000	45.000000	39.801920	45.000000	-3271.670174	-1240.346828	-90.000000	-86.968022	2153.029467	-99.092101	17.647792	10.651032	11.685403	-45.000000	-41.881566	45.000000	-45.000000	2249.023313	-2091.832535	19.591754	-55.098361	1446.806593	29.767125	8.215825	-18.404827	
8.0700	28.410386	28.321543	35.458593	-70.498661	769.062156	10.145064	14.714071	45.000000	45.000000	39.738419	45.000000	-3271.643902	-1240.260291	-90.000000	-87.042077	2153.123155	-99.367735	17.661517	10.688949	11.688750	-45.000000	-41.900460	45.000000	-45.000000	2248.980412	-2091.892399	19.614002	-54.957144	1446.801695	29.719750	8.229161	-18.415762	
8.0800	28.335764	28.367782	35.563206	-70.047838	769.219243	10.279776	14.712822	45.000000	45.000000	39.690649	45.000000	-3271.635297	-1240.179951	-90.000000	-87.109915	2153.217984	-99.646312	17.695945	10.734689	11.687036	-45.000000	-41.912183	45.000000	-45.000000	2248.941373	-2091.937303	19.620818	-54.871846	1446.814690	29.681896	8.235591	-18.432861	
8.0900	28.272401	28.409744	35.656168	-69.690918	769.378248	10.399859	14.709949	45.000000	45.000000	39.641468	45.000000	-3271.614022	-1240.112954	-90.000000	-87.164411	2153.311308	-99.908411	17.727550	10.780823	11.687560	-45.000000	-41.920727	45.000000	-45.000000	2248.911801	-2091.982999	19.628061	-54.838975	1446.836189	29.659746	8.230434	-18.448826	
8.1000	28.202803	28.458644	35.757131	-69.426811	769.537330	10.504638	14.706362	45.000000	45.000000	39.611391	45.000000	-3271.617315	-1240.054959	-90.000000	-87.209908	2153.397558	-100.145116	17.786564	10.830299	11.685552	-45.000000	-41.928121	45.000000	-45.000000	2248.888862	-2092.012628	19.619786	-54.843700	1446.874699	29.654597	8.218511	-18.470428	
8.1100	28.146666	28.498477	35.838703	-69.256396	769.694629	10.593904	14.701159	45.000000	45.000000	39.575442	45.000000	-3271.602758	-1240.011509	-90.000000	-87.240901	2153.476872	-100.342525	17.838933	10.875470	11.686503	-45.000000	-41.929138	45.000000	-45.000000	2248.874073	-2092.041694	19.618674	-54.886450	1446.915608	29.668306	8.197844	-18.489627	
8.1200	28.091919	28.544484	35.920012	-69.181312	769.848608	10.667865	14.695393	45.000000	45.000000	39.557793	45.000000	-3271.606646	-1239.973046	-90.000000	-87.266794	2153.542945	-100.500523	17.914525	10.919216	11.683940	-45.000000	-41.924884	45.000000	-45.000000	2248.863224	-2092.060899	19.606281	-54.952022	1446.969941	29.697512	8.173847	-18.513637	
